<svg width="35" height="35" viewBox="0 0 35 35" fill="none" xmlns="http://www.w3.org/2000/svg">
<path d="M10.329 9.36232C10.074 9.12386 9.73678 8.99404 9.38834 9.00021C9.0399 9.00638 8.70745 9.14806 8.46103 9.39541C8.21461 9.64275 8.07346 9.97644 8.06731 10.3262C8.06116 10.6759 8.1905 11.0144 8.42807 11.2703L15.0991 17.9663L8.42807 24.6623C8.29593 24.7859 8.18994 24.935 8.11643 25.1006C8.04292 25.2662 8.0034 25.4449 8.00021 25.6262C7.99702 25.8074 8.03024 25.9875 8.09789 26.1556C8.16553 26.3237 8.26622 26.4764 8.39393 26.6046C8.52165 26.7328 8.67378 26.8338 8.84125 26.9017C9.00872 26.9696 9.1881 27.003 9.36869 26.9998C9.54928 26.9966 9.72738 26.9569 9.89236 26.8831C10.0573 26.8093 10.2058 26.703 10.329 26.5703L17 19.8743L23.671 26.5703C23.7942 26.703 23.9427 26.8093 24.1076 26.8831C24.2726 26.9569 24.4507 26.9966 24.6313 26.9998C24.8119 27.003 24.9913 26.9696 25.1587 26.9017C25.3262 26.8338 25.4784 26.7328 25.6061 26.6046C25.7338 26.4764 25.8345 26.3237 25.9021 26.1556C25.9698 25.9875 26.003 25.8074 25.9998 25.6262C25.9966 25.4449 25.9571 25.2662 25.8836 25.1006C25.8101 24.935 25.7041 24.7859 25.5719 24.6623L18.9009 17.9663L25.5719 11.2703C25.8095 11.0144 25.9388 10.6759 25.9327 10.3262C25.9265 9.97644 25.7854 9.64275 25.539 9.39541C25.2925 9.14806 24.9601 9.00638 24.6117 9.00021C24.2632 8.99404 23.926 9.12386 23.671 9.36232L17 16.0583L10.329 9.36232Z" fill="black"/>
</svg>
